<svg width="258" height="176" viewBox="0 0 258 176" fill="none" xmlns="http://www.w3.org/2000/svg">
<path d="M257.013 144.391H0.0133057V16.3908H0.263306L55.8717 5.35172L137.029 0.390778L199.15 5.35172L257.263 16.3908H257.013V144.391Z" fill="#CB5B5B"/>
<path d="M220.406 22.8039L257.013 16.3908V175.391L163.013 77.4757L220.406 22.8039Z" fill="url(#paint0_linear_5_25)"/>
<path d="M36.6206 23.7992L0.0133057 16.3908V175.391L94.0133 78.4363L36.6206 23.7992Z" fill="url(#paint1_linear_5_25)"/>
<path d="M82.3772 67.3908H172.792L238.125 128.488L257.013 175.391H0.0133057L16.1145 128.488L82.3772 67.3908Z" fill="url(#paint2_linear_5_25)"/>
<path d="M149.721 67.0807C157.449 67.1436 163.621 66.8836 172.699 66.8909L172.899 66.8904L173.045 67.0296C173.414 67.3836 173.79 67.7445 174.172 68.1131C181.333 75.0222 182.302 76.1651 190.561 84.0181C198.819 91.8706 206.984 99.83 210.694 103.292C214.405 106.753 214.658 107.263 219.894 112.213C225.13 117.163 228.268 120.2 232.777 124.602C234.003 125.798 235.925 127.66 238.178 129.834L238.213 129.884C241.408 137.645 245.881 148.415 247.904 153.126C250.683 159.595 253.648 167.058 255.475 171.528C256.045 172.92 256.488 174.018 256.824 174.861C256.966 175.218 257.023 175.387 257.011 175.392C257.011 175.392 257.011 175.392 257.011 175.392C256.997 175.397 256.877 175.149 256.685 174.694C255.754 172.484 254.353 169.184 252.672 165.297C249.54 158.049 249.314 157.208 245.164 147.388C242.383 140.805 240.315 135.997 237.82 130.048L237.884 130.142C235.586 127.952 233.081 125.551 230.108 122.675C221.092 113.953 218.81 112.17 206.128 99.81C193.447 87.4503 191.891 86.3805 179.113 74.2108C176.935 72.1357 174.663 69.9634 172.355 67.7507L172.699 67.8889C157.145 67.8731 140.314 67.7602 131.491 67.7717C120.853 67.7855 106.567 67.8207 91.4869 67.7808C88.3362 67.7725 85.0312 67.7703 81.6221 67.7714L81.8822 67.6686C72.4618 76.4927 61.9839 86.3715 52.3323 95.3292C40.8256 106.009 24.8348 120.863 16.3602 128.714L16.4043 128.646C16.1726 129.303 15.9533 129.925 15.7475 130.508C12.1281 140.759 11.247 143.258 7.85279 153.157C5.90178 158.847 3.16765 166.669 0.800566 173.257C-0.390707 176.572 -0.180712 175.8 0.956405 172.441C2.61924 167.53 4.03796 163.518 4.8489 160.971C6.4693 155.883 7.16334 153.723 9.4465 147.382C11.7295 141.041 12.5997 137.982 13.9065 134.278C14.577 132.377 14.9244 131.477 15.9773 128.498L16.0513 128.384C18.2522 126.348 21.8873 122.952 28.96 116.276C43.4861 102.566 51.4657 95.0677 56.9744 89.8841C62.143 85.0205 72.6684 75.2773 81.3631 67.1141L81.4713 67.0122L81.6221 67.0118C82.4068 67.0106 83.1811 67.0091 83.9422 67.007C96.2698 66.9737 121.331 67.0042 131.434 66.9497C141.536 66.8952 141.557 67.0142 149.721 67.0807Z" fill="#FFC7C7"/>
<path d="M144.32 1.2841C150.035 1.67372 154.505 2.32555 161.467 2.83981C168.429 3.35406 169.483 3.28189 177.45 3.95323C185.415 4.62453 193.397 5.15495 196.94 5.50214C197.824 5.58872 198.511 5.64357 199.124 5.68402L199.088 5.67922C200.907 5.999 202.063 6.11578 205.785 6.85557C210.742 7.8411 213.757 8.38797 218.111 9.15108C222.466 9.91426 235.819 12.396 240.656 13.3936C245.493 14.3913 251.052 15.3106 254.386 15.9115C255.424 16.0987 256.242 16.2404 256.871 16.3453C257.137 16.3897 257.261 16.4007 257.264 16.3886C257.264 16.3886 257.264 16.3885 257.264 16.3885C257.267 16.3734 257.08 16.3225 256.739 16.2559C255.088 15.9326 252.623 15.4389 249.715 14.8297C244.293 13.6938 243.677 13.6938 236.339 12.2455C229.001 10.7972 224.607 9.85359 215.948 8.27919C208.974 7.011 206.364 6.3352 199.218 4.9928L199.179 4.98755C197.429 4.85137 195.412 4.70507 193.001 4.54454C180.606 3.71915 179.327 3.31351 166.99 2.28804C157.155 1.47045 145.252 0.619819 137.061 0.000511169L137.005 -1.90735e-06C134.921 0.13623 133.077 0.253605 131.567 0.343096C124.118 0.784543 114.112 1.36083 103.556 2.04607C92.9994 2.73131 79.9588 3.42744 68.3079 4.21095C64.5105 4.46633 60.2009 4.755 55.8528 5.04634L55.812 5.05163C46.9828 6.8582 37.9926 8.69811 32.958 9.73901C25.4893 11.2832 23.6686 11.6585 16.4611 13.0517C12.3182 13.8526 6.62045 15.0041 1.8196 16.0365C-0.596504 16.5561 -0.03666 16.5006 2.40799 16.0419C5.98287 15.3712 8.90639 14.7648 10.7578 14.4668C14.4574 13.8713 16.0286 13.6127 20.6501 12.6143C25.2713 11.6161 27.4912 11.3592 30.1901 10.8022C32.889 10.2453 32.8239 10.1498 46.5834 7.50179C50.0835 6.8282 53.181 6.2305 55.9401 5.69698L55.893 5.70306C64.1173 5.24126 69.3854 4.93463 73.3354 4.70788C78.6329 4.40378 89.6864 3.63569 98.3202 3.14133C106.954 2.64697 124.5 1.54389 131.577 1.16594C134.118 1.03027 135.747 0.927882 137.056 0.83313L136.994 0.832549C139.333 0.99299 140.658 1.03436 144.32 1.2841Z" fill="#FFC7C7"/>
<defs>
<linearGradient id="paint0_linear_5_25" x1="163.013" y1="95.8908" x2="257.013" y2="95.8908" gradientUnits="userSpaceOnUse">
<stop stop-color="#FFABAB"/>
<stop offset="1" stop-color="#E47171"/>
</linearGradient>
<linearGradient id="paint1_linear_5_25" x1="94.0133" y1="95.8908" x2="0.0133057" y2="95.8908" gradientUnits="userSpaceOnUse">
<stop stop-color="#FFABAB"/>
<stop offset="1" stop-color="#E47171"/>
</linearGradient>
<linearGradient id="paint2_linear_5_25" x1="0.0133057" y1="121.391" x2="257.013" y2="121.391" gradientUnits="userSpaceOnUse">
<stop stop-color="#FFABAB"/>
<stop offset="1" stop-color="#E47171"/>
</linearGradient>
</defs>
</svg>
