<svg width="25" height="30" viewBox="0 0 25 30" fill="none" xmlns="http://www.w3.org/2000/svg">
<path d="M14.2633 0H10.7346V3.45679H14.2633V0Z" fill="url(#paint0_linear_463_60)"/>
<path d="M16.6133 29.3183C23.1315 27.0921 26.5734 20.1109 24.301 13.7254C22.0285 7.3399 14.9023 3.96809 8.38408 6.19426C1.86585 8.42043 -1.57604 15.4016 0.696401 21.7871C2.96884 28.1726 10.0951 31.5444 16.6133 29.3183Z" fill="url(#paint1_radial_463_60)"/>
<path d="M16.6133 29.3183C23.1315 27.0921 26.5734 20.1109 24.301 13.7254C22.0285 7.3399 14.9023 3.96809 8.38408 6.19426C1.86585 8.42043 -1.57604 15.4016 0.696401 21.7871C2.96884 28.1726 10.0951 31.5444 16.6133 29.3183Z" fill="url(#paint2_radial_463_60)"/>
<path d="M12.5032 14.9077L13.3565 16.6037L15.2675 16.8749L13.8854 18.1945L14.2118 20.0585L12.5032 19.1781L10.7947 20.0585L11.1211 18.1945L9.73901 16.8749L11.6479 16.6037L12.5032 14.9077Z" fill="url(#paint3_radial_463_60)"/>
<path d="M6.21252 14.9077L7.02031 16.6037L8.82801 16.8749L7.52027 18.1945L7.82809 20.0585L6.21252 19.1781L4.59489 20.0585L4.90271 18.1945L3.59497 16.8749L5.40267 16.6037L6.21252 14.9077Z" fill="#FFD67B"/>
<path d="M0.163322 19.7266L0.925656 19.1781L2.1487 20.0585L1.91524 18.1945L2.90483 16.8749L1.53718 16.6037L0.925656 14.9077L0.314136 16.6037L0.0517614 16.6563C0.0187063 17.0186 -0.00195312 17.3849 -0.00195312 17.7553C-0.00195312 18.4272 0.0558933 19.085 0.161257 19.7266H0.163322Z" fill="#F4C756"/>
<path d="M18.7879 14.9077L17.9801 16.6037L16.1724 16.8749L17.4801 18.1945L17.1723 20.0585L18.7879 19.1781L20.4055 20.0585L20.0956 18.1945L21.4054 16.8749L19.5977 16.6037L18.7879 14.9077Z" fill="#FFD67B"/>
<path d="M24.9463 16.6563L24.684 16.6037L24.0724 14.9077L23.4609 16.6037L22.0933 16.8749L23.0828 18.1945L22.8494 20.0585L24.0724 19.1781L24.8348 19.7266C24.9401 19.085 24.998 18.4252 24.998 17.7553C24.998 17.3849 24.9773 17.0186 24.9443 16.6563H24.9463Z" fill="#F4C756"/>
<path d="M3.63415 9.12344C3.81802 9.77918 4.25393 10.4653 5.2931 9.88645C7.04915 8.90891 7.9623 7.72292 10.2328 9.57882C12.5032 11.4347 14.2469 10.0747 15.5402 9.1113C17.1702 7.89697 18.5131 10.1232 19.8911 9.98764C20.7732 9.90061 20.8786 9.30154 20.8476 8.64378C18.635 6.69478 15.7075 5.50879 12.4971 5.50879C9.03039 5.50879 5.89636 6.8911 3.63208 9.12344H3.63415Z" fill="url(#paint4_radial_463_60)"/>
<path d="M3.63415 26.3872C3.81802 25.7315 4.25393 25.0454 5.2931 25.6242C7.04915 26.6018 7.9623 27.7878 10.2328 25.9319C12.5032 24.076 14.2469 25.436 15.5402 26.3994C17.1702 27.6137 18.5131 25.3874 19.8911 25.523C20.7732 25.6101 20.8786 26.2091 20.8476 26.8669C18.635 28.8159 15.7075 30.0019 12.4971 30.0019C9.03039 30.0019 5.89636 28.6196 3.63208 26.3872H3.63415Z" fill="url(#paint5_radial_463_60)"/>
<path style="mix-blend-mode:multiply" d="M21.338 26.4145C26.2192 21.6327 26.2192 13.88 21.338 9.09819C16.4569 4.31642 8.54298 4.31642 3.66183 9.09819C-1.21932 13.88 -1.21932 21.6327 3.66183 26.4145C8.54298 31.1963 16.4569 31.1963 21.338 26.4145Z" fill="url(#paint6_radial_463_60)"/>
<path opacity="0.64" d="M8.51385 9.30344C5.05133 12.993 5.30337 18.7266 9.06752 22.1166C12.8296 25.5006 18.6845 25.2638 22.145 21.5783C25.6054 17.8928 25.3575 12.1571 21.5892 8.76508C17.8333 5.37306 11.9743 5.61795 8.51385 9.30344Z" fill="url(#paint7_radial_463_60)"/>
<path opacity="0.64" d="M8.51385 9.30344C5.05133 12.993 5.30337 18.7266 9.06752 22.1166C12.8296 25.5006 18.6845 25.2638 22.145 21.5783C25.6054 17.8928 25.3575 12.1571 21.5892 8.76508C17.8333 5.37306 11.9743 5.61795 8.51385 9.30344Z" fill="url(#paint8_radial_463_60)"/>
<path opacity="0.64" d="M8.51385 9.30344C5.05133 12.993 5.30337 18.7266 9.06752 22.1166C12.8296 25.5006 18.6845 25.2638 22.145 21.5783C25.6054 17.8928 25.3575 12.1571 21.5892 8.76508C17.8333 5.37306 11.9743 5.61795 8.51385 9.30344Z" fill="url(#paint9_radial_463_60)"/>
<path opacity="0.64" d="M8.51385 9.30344C5.05133 12.993 5.30337 18.7266 9.06752 22.1166C12.8296 25.5006 18.6845 25.2638 22.145 21.5783C25.6054 17.8928 25.3575 12.1571 21.5892 8.76508C17.8333 5.37306 11.9743 5.61795 8.51385 9.30344Z" fill="url(#paint10_radial_463_60)"/>
<path d="M15.5422 3.18555H9.45801V5.87529H15.5422V3.18555Z" fill="url(#paint11_linear_463_60)"/>
<defs>
<linearGradient id="paint0_linear_463_60" x1="10.7346" y1="1.72839" x2="14.2633" y2="1.72839" gradientUnits="userSpaceOnUse">
<stop stop-color="#B0610A"/>
<stop offset="0.56" stop-color="#FFE596"/>
<stop offset="0.62" stop-color="#FBDF90"/>
<stop offset="0.7" stop-color="#F2D080"/>
<stop offset="0.79" stop-color="#E3B765"/>
<stop offset="0.88" stop-color="#CF9441"/>
<stop offset="0.98" stop-color="#B46812"/>
<stop offset="1" stop-color="#B0610A"/>
</linearGradient>
<radialGradient id="paint1_radial_463_60" cx="0" cy="0" r="1" gradientUnits="userSpaceOnUse" gradientTransform="translate(15.287 14.8211) scale(13.8811 13.5985)">
<stop stop-color="#332E33"/>
<stop offset="0.63" stop-color="#151214"/>
<stop offset="1" stop-color="#090708"/>
</radialGradient>
<radialGradient id="paint2_radial_463_60" cx="0" cy="0" r="1" gradientUnits="userSpaceOnUse" gradientTransform="translate(15.287 14.8211) scale(13.8811 13.5985)">
<stop stop-color="#332E33"/>
<stop offset="0.63" stop-color="#151214"/>
<stop offset="1" stop-color="#090708"/>
</radialGradient>
<radialGradient id="paint3_radial_463_60" cx="0" cy="0" r="1" gradientUnits="userSpaceOnUse" gradientTransform="translate(12.5694 20.8163) scale(3.1547 1.94699)">
<stop stop-color="#FFE596"/>
<stop offset="1" stop-color="#FFE495"/>
</radialGradient>
<radialGradient id="paint4_radial_463_60" cx="0" cy="0" r="1" gradientUnits="userSpaceOnUse" gradientTransform="translate(12.4516 11.2627) scale(9.42897 5.81931)">
<stop stop-color="#FFE596"/>
<stop offset="0.14" stop-color="#FBDF90"/>
<stop offset="0.32" stop-color="#F2D080"/>
<stop offset="0.52" stop-color="#E3B765"/>
<stop offset="0.74" stop-color="#CF9441"/>
<stop offset="0.96" stop-color="#B46812"/>
<stop offset="1" stop-color="#B0610A"/>
</radialGradient>
<radialGradient id="paint5_radial_463_60" cx="0" cy="0" r="1" gradientUnits="userSpaceOnUse" gradientTransform="translate(0.103446 24.2869) scale(0.103297 0.0637523)">
<stop stop-color="#FFE596"/>
<stop offset="0.14" stop-color="#FBDF90"/>
<stop offset="0.32" stop-color="#F2D080"/>
<stop offset="0.52" stop-color="#E3B765"/>
<stop offset="0.74" stop-color="#CF9441"/>
<stop offset="0.96" stop-color="#B46812"/>
<stop offset="1" stop-color="#B0610A"/>
</radialGradient>
<radialGradient id="paint6_radial_463_60" cx="0" cy="0" r="1" gradientUnits="userSpaceOnUse" gradientTransform="translate(15.2875 14.8216) scale(13.8811 13.5985)">
<stop stop-color="#C99048" stop-opacity="0"/>
<stop offset="0.19" stop-color="#C88F47" stop-opacity="0.02"/>
<stop offset="0.35" stop-color="#C58C44" stop-opacity="0.08"/>
<stop offset="0.49" stop-color="#C1883F" stop-opacity="0.19"/>
<stop offset="0.63" stop-color="#BC8339" stop-opacity="0.34"/>
<stop offset="0.76" stop-color="#B47C31" stop-opacity="0.53"/>
<stop offset="0.89" stop-color="#AB7327" stop-opacity="0.77"/>
<stop offset="1" stop-color="#A36B1D"/>
</radialGradient>
<radialGradient id="paint7_radial_463_60" cx="0" cy="0" r="1" gradientTransform="matrix(-6.75163 -6.07991 -5.52358 5.88661 15.2044 15.5796)" gradientUnits="userSpaceOnUse">
<stop stop-color="white"/>
<stop offset="0.01" stop-color="white" stop-opacity="0.97"/>
<stop offset="0.08" stop-color="white" stop-opacity="0.77"/>
<stop offset="0.14" stop-color="white" stop-opacity="0.59"/>
<stop offset="0.22" stop-color="white" stop-opacity="0.43"/>
<stop offset="0.29" stop-color="white" stop-opacity="0.3"/>
<stop offset="0.37" stop-color="white" stop-opacity="0.19"/>
<stop offset="0.45" stop-color="white" stop-opacity="0.1"/>
<stop offset="0.55" stop-color="white" stop-opacity="0.05"/>
<stop offset="0.66" stop-color="white" stop-opacity="0.01"/>
<stop offset="0.82" stop-color="white" stop-opacity="0"/>
</radialGradient>
<radialGradient id="paint8_radial_463_60" cx="0" cy="0" r="1" gradientTransform="matrix(-6.75163 -6.07991 -5.52358 5.88661 15.2044 15.5796)" gradientUnits="userSpaceOnUse">
<stop stop-color="white"/>
<stop offset="0.01" stop-color="white" stop-opacity="0.97"/>
<stop offset="0.08" stop-color="white" stop-opacity="0.77"/>
<stop offset="0.14" stop-color="white" stop-opacity="0.59"/>
<stop offset="0.22" stop-color="white" stop-opacity="0.43"/>
<stop offset="0.29" stop-color="white" stop-opacity="0.3"/>
<stop offset="0.37" stop-color="white" stop-opacity="0.19"/>
<stop offset="0.45" stop-color="white" stop-opacity="0.1"/>
<stop offset="0.55" stop-color="white" stop-opacity="0.05"/>
<stop offset="0.66" stop-color="white" stop-opacity="0.01"/>
<stop offset="0.82" stop-color="white" stop-opacity="0"/>
</radialGradient>
<radialGradient id="paint9_radial_463_60" cx="0" cy="0" r="1" gradientTransform="matrix(-6.75163 -6.07991 -5.52358 5.88661 15.2044 15.5796)" gradientUnits="userSpaceOnUse">
<stop stop-color="white"/>
<stop offset="0.01" stop-color="white" stop-opacity="0.97"/>
<stop offset="0.08" stop-color="white" stop-opacity="0.77"/>
<stop offset="0.14" stop-color="white" stop-opacity="0.59"/>
<stop offset="0.22" stop-color="white" stop-opacity="0.43"/>
<stop offset="0.29" stop-color="white" stop-opacity="0.3"/>
<stop offset="0.37" stop-color="white" stop-opacity="0.19"/>
<stop offset="0.45" stop-color="white" stop-opacity="0.1"/>
<stop offset="0.55" stop-color="white" stop-opacity="0.05"/>
<stop offset="0.66" stop-color="white" stop-opacity="0.01"/>
<stop offset="0.82" stop-color="white" stop-opacity="0"/>
</radialGradient>
<radialGradient id="paint10_radial_463_60" cx="0" cy="0" r="1" gradientTransform="matrix(-6.75163 -6.07991 -5.52358 5.88661 15.2044 15.5796)" gradientUnits="userSpaceOnUse">
<stop stop-color="white"/>
<stop offset="0.01" stop-color="white" stop-opacity="0.97"/>
<stop offset="0.08" stop-color="white" stop-opacity="0.77"/>
<stop offset="0.14" stop-color="white" stop-opacity="0.59"/>
<stop offset="0.22" stop-color="white" stop-opacity="0.43"/>
<stop offset="0.29" stop-color="white" stop-opacity="0.3"/>
<stop offset="0.37" stop-color="white" stop-opacity="0.19"/>
<stop offset="0.45" stop-color="white" stop-opacity="0.1"/>
<stop offset="0.55" stop-color="white" stop-opacity="0.05"/>
<stop offset="0.66" stop-color="white" stop-opacity="0.01"/>
<stop offset="0.82" stop-color="white" stop-opacity="0"/>
</radialGradient>
<linearGradient id="paint11_linear_463_60" x1="9.45801" y1="4.53143" x2="15.5422" y2="4.53143" gradientUnits="userSpaceOnUse">
<stop stop-color="#B0610A"/>
<stop offset="0.56" stop-color="#FFE596"/>
<stop offset="0.62" stop-color="#FBDF90"/>
<stop offset="0.7" stop-color="#F2D080"/>
<stop offset="0.79" stop-color="#E3B765"/>
<stop offset="0.88" stop-color="#CF9441"/>
<stop offset="0.98" stop-color="#B46812"/>
<stop offset="1" stop-color="#B0610A"/>
</linearGradient>
</defs>
</svg>
