<svg width="134" height="132" viewBox="0 0 134 132" fill="none" xmlns="http://www.w3.org/2000/svg">
<path d="M124.121 20.9924C126.045 23.3119 127.6 25.6255 129.171 28.7781C129.172 28.7798 129.172 28.7815 129.173 28.7831C129.393 29.2294 129.615 29.6998 129.835 30.1919C131.548 34.1144 133.463 39.5464 133.682 47.896C133.834 57.128 131.534 64.1539 129.99 68.2241C129.691 68.9847 129.408 69.7867 128.597 71.7562C128.058 73.045 127.312 74.783 126.062 77.205C125.396 78.4893 124.582 79.9708 123.552 81.6527C120.203 87.2301 113.811 95.4694 105.873 100.856C101.125 104.165 95.9051 106.325 91.734 107.142C85.66 108.408 79.2138 107.709 73.4221 104.577C70.9877 103.269 68.6756 101.576 66.4448 99.4314C63.8951 96.9646 61.563 94.2742 59.6101 90.9022C56.7618 86.0498 55.5534 79.9931 57.2 74.5087C57.4014 73.8131 57.6422 73.1295 57.9192 72.4622C59.8462 67.8319 63.4491 64.0281 67.9695 61.2112C76.1665 56.328 84.1229 55.2102 92.3761 56.3107C95.6207 56.7972 98.9059 57.7213 102.272 59.3221C107.599 61.7282 114.286 67.2669 118.514 74.5396C118.883 75.1532 119.244 75.7844 119.594 76.4307C119.596 76.434 119.597 76.4372 119.599 76.4405C123.269 83.2146 125.098 90.3824 126.085 95.9182C127.492 104.412 127.429 107.67 127.611 110.465C127.656 111.53 127.685 112.491 127.7 113.566C127.767 117.541 127.517 123.7 126.829 129.94C126.826 129.964 126.823 129.989 126.821 130.013C126.707 131.068 126.463 131.919 126.292 131.893C126.121 131.867 126.087 130.979 126.2 129.928C126.566 126.544 126.798 123.524 126.937 120.646C126.796 120.485 126.724 119.68 126.758 118.739C126.78 116.39 127.196 109.323 125.477 98.3567C125.56 99.0987 125.618 99.7307 125.663 100.289C125.716 100.945 125.749 101.455 125.776 101.895C125.829 102.803 125.864 103.477 125.925 104.46C126.099 106.718 126.308 110.911 126.265 114.733C126.258 115.734 126.098 116.557 125.926 116.548C125.753 116.54 125.633 115.707 125.64 114.712C125.64 114.692 125.64 114.673 125.64 114.653C125.681 110.877 125.468 106.594 125.281 104.253C125.237 103.656 125.187 103.052 125.15 102.626C125.121 102.282 125.082 101.855 125.066 101.619C125.064 101.587 125.06 101.528 125.056 101.456C125.055 101.455 125.055 101.454 125.055 101.453C125.053 101.413 125.041 101.209 125.041 100.991C125.041 100.947 125.041 100.852 125.046 100.74C125.044 100.712 125.042 100.683 125.04 100.655C125.011 100.26 124.979 99.8605 124.94 99.4315C124.77 97.8116 124.567 95.0279 123.289 89.7085C121.991 84.7502 119.48 76.1018 112.121 68.1285C112.633 68.6926 113.079 69.2155 113.536 69.7771C114.669 71.169 115.795 72.7658 116.719 74.2689C117.085 74.8622 117.438 75.4638 117.789 76.0935C118.364 77.127 118.87 78.1251 119.346 79.1397C119.669 79.8298 119.983 80.5392 120.286 81.2661C120.287 81.2677 120.288 81.2693 120.288 81.271C120.713 82.2896 121.102 83.3115 121.446 84.2948C121.568 84.6455 121.687 84.9957 121.803 85.347C122.257 86.7226 122.706 88.252 123.085 89.8225C123.13 90.0145 123.176 90.2247 123.21 90.3823C123.246 90.5517 123.28 90.7154 123.312 90.8709C123.339 91.0081 123.365 91.1394 123.39 91.2656C123.393 91.2825 123.396 91.2995 123.399 91.3164C123.427 91.4578 123.453 91.5933 123.478 91.724C123.503 91.8544 123.526 91.9804 123.55 92.1047C123.55 92.1059 123.55 92.107 123.551 92.1081C123.576 92.238 123.594 92.3369 123.621 92.475C123.655 92.6486 123.684 92.7981 123.719 92.9798C123.754 93.1556 123.79 93.3395 123.826 93.5261C123.862 93.7125 123.899 93.9032 123.936 94.0975C123.973 94.2919 124.01 94.4905 124.048 94.6914C124.085 94.8922 124.122 95.0966 124.159 95.303C124.196 95.5095 124.233 95.7193 124.269 95.931C124.346 96.3816 124.384 96.8144 124.378 97.1427C124.373 97.4701 124.324 97.6607 124.244 97.6712C124.164 97.6817 124.059 97.5113 123.949 97.2015C123.839 96.8902 123.734 96.4731 123.65 96.0239C123.625 95.8925 123.601 95.7608 123.575 95.6291C123.56 95.5509 123.545 95.472 123.53 95.3937C123.489 95.183 123.447 94.9712 123.405 94.7592C123.362 94.5473 123.319 94.3346 123.274 94.1205C123.23 93.9058 123.184 93.6893 123.138 93.4709C123.092 93.2529 123.044 93.0312 122.996 92.8071C122.949 92.5884 122.895 92.3402 122.847 92.1193C122.812 91.9578 122.769 91.7594 122.734 91.5946C122.696 91.4226 122.66 91.2539 122.625 91.0919C122.589 90.9295 122.555 90.773 122.522 90.6241C122.518 90.6082 122.515 90.5923 122.511 90.5764C122.482 90.4449 122.453 90.3184 122.426 90.1992C122.395 90.0659 122.365 89.9404 122.336 89.8215C122.305 89.6906 122.285 89.6116 122.26 89.5148C121.903 88.1699 121.379 86.4768 120.843 84.9891C120.775 84.8008 120.707 84.6146 120.64 84.4316C120.289 83.4835 119.881 82.4636 119.45 81.4767C119.137 80.7617 118.814 80.065 118.481 79.3861C117.997 78.4003 117.466 77.3991 116.883 76.3954C116.525 75.7799 116.165 75.193 115.792 74.6137C114.854 73.1534 113.689 71.568 112.539 70.2199C111.4 68.874 110.04 67.4835 108.708 66.3176C107.318 65.0949 105.821 63.9716 104.268 62.9872C103.115 62.2547 101.936 61.5918 100.783 61.0251C100.16 60.7185 99.5437 60.439 98.9325 60.1827C98.9304 60.1818 98.9283 60.1809 98.9262 60.18C98.3893 59.9551 97.858 59.7487 97.3233 59.5573C96.1544 59.1396 94.9928 58.8003 93.8244 58.529C92.6509 58.2565 91.4484 58.05 90.2514 57.9139C89.0693 57.7786 87.818 57.7076 86.6127 57.7081C85.4069 57.708 84.1858 57.7742 82.9404 57.9137C81.3156 58.0956 79.6584 58.4056 78.0492 58.8343C76.4112 59.2711 74.8476 59.8145 73.2803 60.5024C72.7376 60.7411 72.2039 60.9937 71.6811 61.2599C71.6791 61.2609 71.6771 61.2619 71.675 61.263C70.7191 61.7493 69.7383 62.3161 68.8364 62.9107C67.4396 63.8296 66.0967 64.8939 64.8951 66.0713C63.6837 67.2577 62.6059 68.5609 61.7002 69.9872C60.7979 71.4055 60.0524 72.9889 59.5601 74.6408C59.116 76.1269 58.8785 77.6488 58.8504 79.1894C58.843 79.6016 58.8502 79.9955 58.8704 80.3901C58.9704 82.295 59.3698 84.1025 60.0159 85.8721C60.646 87.5987 61.5322 89.2914 62.5515 90.8399C63.5355 92.3469 64.8421 93.9706 66.0925 95.2996C66.7765 96.0315 67.5084 96.7598 68.2957 97.4902C68.9982 98.1414 69.7098 98.7445 70.4346 99.3042C71.8847 100.428 73.6085 101.519 75.3135 102.325C76.3004 102.796 77.3487 103.213 78.3579 103.537C79.4031 103.874 80.4468 104.131 81.4812 104.314C81.9021 104.388 82.331 104.452 82.7529 104.503C83.3693 104.577 83.9816 104.625 84.5853 104.65C85.604 104.691 86.6001 104.665 87.5683 104.583C88.5415 104.499 89.4619 104.362 90.3565 104.18C91.28 103.991 92.0462 103.791 92.9237 103.516C95.0908 102.838 96.3826 102.278 97.8103 101.614C98.0915 101.481 98.3783 101.341 98.6763 101.19C100.332 100.355 101.999 99.3583 103.519 98.3195C105.089 97.2476 106.548 96.1189 107.995 94.8773C109.417 93.6558 110.787 92.3517 112.093 90.99C113.387 89.6405 114.643 88.2054 115.818 86.7419C117.005 85.2643 118.143 83.7165 119.183 82.1764C119.787 81.2828 120.398 80.333 120.951 79.4294C121.349 78.7787 121.732 78.1292 122.097 77.4861C122.245 77.2246 122.391 76.9636 122.534 76.7041C123.027 75.8091 123.486 74.9263 123.908 74.0631C124.332 73.1993 124.72 72.3554 125.079 71.5197C125.439 70.6826 125.77 69.856 126.081 69.0197C126.401 68.1523 126.651 67.4266 126.945 66.4925C127.136 65.8833 127.313 65.2876 127.481 64.6853C127.733 63.7857 127.961 62.8888 128.169 61.9829C128.375 61.0797 128.559 60.179 128.72 59.2713C128.772 58.9797 128.825 58.6716 128.871 58.3789C129.017 57.473 129.136 56.5847 129.233 55.6811C129.33 54.7829 129.401 53.8938 129.447 53.0105C129.493 52.1262 129.515 51.2466 129.511 50.3568C129.504 48.8435 129.444 47.4068 129.345 46.1463C129.245 44.8728 129.104 43.6957 128.923 42.5513C128.888 42.3373 128.853 42.1237 128.815 41.9105C128.654 40.9922 128.465 40.0956 128.249 39.2214C127.982 38.1454 127.675 37.1012 127.32 36.0676C126.966 35.0381 126.571 34.0365 126.13 33.0545C125.686 32.0645 125.219 31.1358 124.676 30.1736C124.14 29.2224 123.53 28.2512 122.834 27.2609C122.145 26.2799 121.365 25.2728 120.51 24.2783C119.683 23.3181 118.792 22.3741 117.841 21.4566C116.875 20.5256 115.946 19.7105 114.923 18.8814C114.466 18.5119 113.999 18.1479 113.52 17.7896C112.92 17.3405 112.322 16.9042 111.725 16.4804C110.646 15.7134 109.53 14.9609 108.485 14.29C106.716 13.1541 104.968 12.1315 103.179 11.184C101.343 10.2134 99.5416 9.35986 97.6579 8.57141C95.7523 7.77604 93.9127 7.10571 91.9402 6.49441C89.9909 5.89218 88.0625 5.39787 86.0613 4.99183C85.6227 4.90296 85.1844 4.81926 84.7463 4.74069C83.2168 4.46583 81.6328 4.24602 80.0797 4.09415C80.069 4.09305 80.0583 4.09195 80.0477 4.09086C78.0583 3.89676 76.0522 3.80457 74.0626 3.81482C73.3332 3.81864 72.6232 3.8355 71.9049 3.86577C71.1856 3.89621 70.4817 3.93911 69.7733 3.9952C69.0632 4.0515 68.3638 4.12008 67.6669 4.20124C66.9646 4.28312 66.2825 4.37544 65.5965 4.4812C64.9678 4.57823 64.3456 4.6849 63.6685 4.81261C63.6067 4.82429 63.5449 4.83605 63.4831 4.84791C62.7402 4.99011 61.8979 5.16609 61.1183 5.34191C59.0539 5.80639 57.0623 6.36251 55.0658 7.02544C53.0684 7.68932 51.1065 8.44918 49.1657 9.3066C48.4086 9.64109 47.6536 9.99128 46.9043 10.355C45.7383 10.9209 44.5832 11.5213 43.4422 12.1534C41.5633 13.1944 39.725 14.3196 37.9236 15.5277C36.1265 16.7328 34.3732 18.0163 32.6744 19.3668C30.9801 20.7132 29.3216 22.1431 27.7433 23.6144C25.9841 25.2539 24.305 26.9628 22.697 28.75C21.0914 30.5346 19.5631 32.3917 18.1252 34.3053C16.6817 36.2264 15.3277 38.2052 14.0642 40.2432C12.8029 42.2775 11.6281 44.3792 10.5586 46.5226C9.91647 47.8097 9.31187 49.1119 8.74619 50.4282C8.46745 51.136 8.21122 51.8194 7.97433 52.4782C6.25629 57.3515 5.34667 60.9926 4.56497 65.8265C4.4961 66.2911 4.44842 66.67 4.39484 67.1311C4.38465 67.2191 4.3739 67.3124 4.36327 67.4076C4.29643 68.0106 4.22363 68.7012 4.13464 69.6651C3.96208 71.5891 3.72311 74.5319 3.734 78.3573C3.73815 79.3227 3.61968 79.9463 3.43619 79.7498C3.30845 79.6109 3.18695 79.1016 3.13037 78.4706C3.1611 79.6378 3.2254 80.7994 3.32498 81.9586C3.36457 82.4212 3.37731 82.8587 3.35478 83.1746C3.33223 83.4903 3.27536 83.6588 3.19193 83.6428C3.10873 83.6268 3.00523 83.4261 2.90768 83.0833C2.81018 82.7406 2.72802 82.2844 2.68237 81.8153C2.56104 80.5702 2.48049 79.3307 2.43745 78.084C2.39454 76.8371 2.38972 75.5954 2.422 74.3508C2.45433 73.1067 2.52358 71.864 2.62954 70.6191C2.73517 69.3783 2.87696 68.1408 3.05422 66.9043C3.23264 65.6607 3.44326 64.439 3.6896 63.2129C3.83746 62.4768 3.9999 61.7337 4.17123 61.0061C4.23513 60.7349 4.29889 60.4705 4.36441 60.2063C4.41797 59.9903 4.47295 59.7734 4.53061 59.5504C5.13323 57.2152 5.87005 54.8724 6.70773 52.6062C7.5526 50.3198 8.50512 48.0865 9.56573 45.891C10.6227 43.703 11.7881 41.5542 13.0421 39.4732C14.2988 37.3876 15.6479 35.3617 17.089 33.3928C18.524 31.4322 20.0526 29.527 21.6579 27.6972C22.8996 26.2818 24.1791 24.9194 25.5049 23.5997C26.0182 23.0713 26.5339 22.5557 27.0497 22.0538C28.5513 20.5926 30.105 19.1762 31.6874 17.8418C28.8294 20.1662 26.6877 22.2191 24.7337 24.2439C24.4721 24.5159 24.2141 24.7879 23.9587 25.0607C21.3619 27.8545 18.9801 30.6725 16.0984 34.6999C8.02543 46.2893 5.80507 54.3993 4.38123 59.2294C3.07377 64.149 2.79058 66.3251 2.40057 68.3324C1.82619 71.1737 1.55453 76.7808 1.78564 79.5885C1.84618 80.6062 1.78554 81.4404 1.61263 81.4525C1.44067 81.4643 1.22077 80.6393 1.1598 79.609C0.909841 76.6142 1.21824 70.4783 1.9667 67.0796C2.29617 65.5675 2.51323 63.7986 3.81885 58.9124C5.24841 54.1178 7.45592 46.0086 15.6078 34.3095C18.409 30.3987 20.7067 27.6575 23.2846 24.8626C23.5384 24.5894 23.7958 24.3158 24.0574 24.0416C24.059 24.0399 24.0607 24.0383 24.0624 24.0366C26.4813 21.5188 29.2356 18.8683 33.331 15.7608C42.6001 8.1895 57.9699 2.95338 61.7298 2.46644C62.4574 2.30322 63.1632 2.15519 63.908 2.01248C66.7681 1.535 70.283 0.711892 78.2447 1.03514C79.969 1.1263 82.0118 1.31616 84.2124 1.65931C87.513 2.08861 90.6909 2.79388 93.4164 3.60299C95.7624 4.29852 97.8693 5.01831 99.9366 5.82027C100.514 6.04404 101.096 6.27772 101.678 6.52054C103.071 7.10134 104.512 7.76343 105.82 8.423C106.865 8.94977 107.962 9.5275 109.12 10.1793C111.289 11.4062 113.449 12.7346 115.97 14.5461C118.454 16.3397 120.978 18.5181 123.409 21.397C128.674 27.6391 131.2 34.416 132.288 40.2589C131.485 35.9392 130.296 32.7255 129.118 30.1304C128.891 29.6358 128.673 29.1833 128.451 28.7425C126.857 25.6211 125.417 23.543 123.656 21.4117C120.964 18.2082 118.418 16.0418 116.137 14.3252C111.482 10.8829 108.533 9.24644 105.324 7.63674C104.029 6.99729 102.595 6.34808 101.051 5.71992C97.9343 4.44889 94.2807 3.22893 90.2689 2.27773C86.5353 1.38821 82.2595 0.767793 77.7415 0.653758C77.7397 0.653668 77.7379 0.653577 77.7361 0.653487C76.8465 0.630314 75.9495 0.62613 75.0483 0.641518C69.5435 0.726658 63.8018 1.59293 58.4064 3.0991C57.8303 3.25903 57.1404 3.46039 56.3552 3.70746C51.831 5.11611 43.9857 8.17147 35.5735 13.9023C33.7283 15.1551 31.8429 16.5125 29.7756 18.1688C29.1462 18.6736 28.4996 19.2072 27.8342 19.7763C24.9722 22.2383 21.604 25.4003 17.7457 30.1632C14.5667 34.0918 11.1002 39.231 8.26643 44.9794C6.86439 47.8116 5.61231 50.7776 4.56887 53.7672C1.42419 62.8103 0.178115 71.7002 0.768138 80.4804C0.768272 80.4822 0.768406 80.484 0.768541 80.4858C0.839356 81.5215 0.785154 82.3476 0.608951 82.33C0.433839 82.3121 0.204073 81.4484 0.134913 80.4007C-0.442892 71.523 0.833039 62.5802 4.00098 53.4951C5.03995 50.5269 6.29115 47.56 7.69828 44.7164C10.566 38.8929 14.1097 33.6446 17.3501 29.6562C21.3118 24.7829 24.7805 21.5524 27.7155 19.0511C28.425 18.45 29.102 17.8975 29.7517 17.3825C31.8227 15.7438 33.6115 14.4725 35.3789 13.2777C43.6027 7.71022 51.1921 4.69337 55.766 3.23451C56.5787 2.97335 57.2987 2.75873 57.9138 2.58468C63.2435 1.06929 68.943 0.155485 74.4986 0.0208172C75.3968 -0.00222743 76.2941 -0.00599086 77.1876 0.00922C77.1895 0.00919354 77.1913 0.00916576 77.1931 0.0091387C81.7641 0.0829701 86.1514 0.676502 90.0093 1.57034C93.9082 2.47437 97.2264 3.53657 100.32 4.74014C101.933 5.36811 103.487 6.04226 105.017 6.78C108.518 8.49851 111.669 10.2422 116.515 13.8258C118.847 15.5814 121.421 17.7815 124.121 20.9924ZM3.10965 76.6645C3.15792 74.2635 3.28967 72.3153 3.40372 70.8634C3.2839 72.0945 3.20013 73.3251 3.15337 74.5587C3.12677 75.2608 3.11215 75.9626 3.10965 76.6645ZM84.4115 2.32423C84.0169 2.27075 83.6294 2.2222 83.2215 2.17476C84.324 2.32631 85.4085 2.50554 86.5033 2.71678C87.847 2.97604 89.1887 3.28231 90.4937 3.62454C88.4338 3.07223 86.3206 2.62948 84.4115 2.32423ZM122.941 21.8137C120.512 18.9368 118.035 16.8128 115.589 15.0508C113.448 13.5163 111.53 12.3095 109.615 11.1993C108.42 10.5069 107.26 9.87753 106.115 9.28723C105.638 9.04135 105.172 8.80985 104.678 8.57176C107.412 10.018 109.98 11.6308 111.88 12.9328C113.14 13.7935 114.276 14.6239 115.313 15.4166C119.039 18.2966 121.095 20.6064 122.826 22.7585C123.475 23.578 124.062 24.3798 124.624 25.2095C125.113 25.876 125.603 26.5889 126.076 27.34C126.738 28.3876 127.384 29.5326 127.948 30.6693C128.517 31.8151 129.033 33.0016 129.479 34.1848C129.932 35.3838 130.321 36.598 130.651 37.8164C130.961 38.9623 131.22 40.1225 131.425 41.2509C131.437 41.3156 131.449 41.3803 131.46 41.445C131.673 42.6398 131.828 43.8091 131.938 44.8863C132.051 45.9835 132.112 46.9008 132.161 47.716C132.221 48.7283 132.249 49.7717 132.242 50.8063C132.235 51.8438 132.195 52.8719 132.125 53.895C132.055 54.9207 131.955 55.9389 131.826 56.9551C131.784 57.282 131.737 57.6237 131.69 57.9475C131.669 58.0968 131.646 58.246 131.623 58.3947C131.965 56.4353 132.223 54.3511 132.353 52.2162C132.539 49.1085 132.492 45.7748 131.966 42.1385C131.06 35.9822 128.74 28.7273 122.941 21.8137ZM119.833 85.9972C120.338 85.2953 121.067 84.2558 121.953 82.8677C122.161 82.5406 122.377 82.1964 122.601 81.8319C122.595 81.8404 122.59 81.8491 122.584 81.8576C122.015 82.7464 121.464 83.5674 120.858 84.4335C119.779 85.9736 118.665 87.4368 117.49 88.8615C116.322 90.2775 115.063 91.6846 113.781 92.996C112.478 94.3299 111.125 95.5993 109.716 96.7988C108.28 98.0199 106.849 99.1235 105.297 100.189C104.808 100.525 104.314 100.851 103.818 101.166C104.934 100.481 106.092 99.6986 107.261 98.831C108.184 98.1456 109.134 97.3928 110.114 96.5579C110.489 96.2383 110.925 95.8614 111.436 95.4012C113.466 93.567 116.537 90.5679 119.833 85.9972ZM90.0368 106.728C89.6043 106.798 89.1747 106.857 88.7475 106.905C87.5187 107.044 86.3172 107.095 85.1403 107.067C84.3136 107.047 83.4967 106.988 82.6936 106.892C82.3547 106.852 82.0164 106.804 81.6818 106.751C81.1165 106.66 80.5781 106.556 80.0352 106.432C83.8324 107.332 87.7626 107.321 91.6258 106.526C91.6772 106.515 91.7289 106.504 91.7807 106.493C91.1854 106.591 90.6042 106.669 90.0368 106.728Z" fill="white"/>
</svg>
